<?xml version="1.0" standalone="no"?>
<!DOCTYPE svg PUBLIC "-//W3C//DTD SVG 20010904//EN"
 "http://www.w3.org/TR/2001/REC-SVG-20010904/DTD/svg10.dtd">
<svg version="1.0" xmlns="http://www.w3.org/2000/svg"
 width="500.000000pt" height="500.000000pt" viewBox="0 0 500.000000 500.000000"
 preserveAspectRatio="xMidYMid meet">
<metadata>
Created by potrace 1.16, written by Peter Selinger 2001-2019
</metadata>
<g transform="translate(0.000000,500.000000) scale(0.100000,-0.100000)"
fill="#000000" stroke="none">
<path d="M3825 3814 c-77 -101 -169 -329 -200 -494 -17 -94 -21 -303 -6 -390
21 -128 79 -298 130 -381 27 -45 31 -218 5 -240 -43 -35 -43 -43 -44 -563 0
-548 0 -548 62 -586 68 -41 165 -14 194 56 12 29 14 115 12 544 l-3 509 -27
28 -28 29 0 743 c0 492 -3 749 -10 762 -17 31 -54 24 -85 -17z m5 -701 l-1
-538 -23 45 c-127 244 -150 569 -60 839 26 77 74 191 80 191 2 0 4 -242 4
-537z m44 -859 c14 -5 16 -60 16 -510 0 -503 0 -503 -21 -515 -16 -8 -28 -8
-45 0 l-24 11 0 498 c0 374 3 501 12 510 13 13 37 15 62 6z"/>
<path d="M1046 3808 c-14 -8 -16 -47 -16 -393 0 -367 1 -387 21 -441 29 -76
82 -128 148 -144 l51 -12 0 -188 0 -188 -29 -31 c-19 -21 -32 -47 -36 -74 -3
-23 -5 -281 -3 -574 3 -519 3 -532 24 -560 25 -34 79 -63 119 -63 40 0 94 29
119 63 21 28 21 40 23 595 2 371 -1 562 -7 552 -8 -12 -10 -9 -10 13 0 16 -10
38 -25 53 -25 25 -25 26 -25 213 l0 189 48 12 c66 16 106 50 139 117 l28 58 3
395 c3 351 1 396 -13 406 -22 16 -54 6 -60 -20 -3 -11 -6 -187 -7 -391 -3
-358 -4 -371 -25 -411 -28 -53 -45 -66 -97 -74 l-43 -6 -6 445 c-5 411 -7 446
-23 458 -23 17 -29 16 -48 -3 -15 -14 -16 -64 -14 -455 l3 -439 -40 0 c-50 0
-79 19 -108 73 -21 41 -22 51 -25 412 -1 204 -4 380 -7 391 -6 25 -35 36 -59
22z m313 -1445 l21 -18 -2 -550 -3 -550 -28 -13 c-24 -12 -31 -11 -53 2 l-24
17 2 551 3 552 25 13 c32 16 34 16 59 -4z"/>
<path d="M2575 3203 c-197 -17 -342 -67 -491 -169 -241 -165 -396 -432 -420
-725 -7 -82 4 -119 35 -119 30 0 38 20 50 126 42 395 322 707 707 789 38 8 96
15 130 15 65 0 84 11 84 47 0 21 -28 45 -47 41 -4 -1 -26 -3 -48 -5z"/>
<path d="M2610 2742 l-43 -38 18 -59 c26 -90 62 -155 85 -155 22 0 24 10 10
59 -8 29 -6 38 15 63 45 54 25 88 -30 52 -34 -22 -32 -4 6 50 52 73 11 92 -61
28z"/>
<path d="M2376 2674 c-22 -21 -20 -67 3 -95 16 -21 17 -26 5 -56 -19 -44 -18
-65 6 -91 28 -29 76 -28 121 2 24 17 40 21 50 15 8 -5 22 -9 32 -9 23 0 22 37
-2 50 -17 8 -18 14 -8 40 9 23 8 33 -2 42 -10 11 -16 8 -32 -11 -20 -24 -21
-24 -47 -8 -24 14 -27 21 -24 60 2 31 -2 49 -13 61 -21 20 -69 21 -89 0z"/>
<path d="M2215 2611 c-39 -27 -40 -29 -39 -82 1 -66 46 -175 76 -185 31 -10
108 52 108 87 0 29 -18 32 -54 9 -48 -29 -57 -7 -15 36 31 32 32 35 17 51 -16
15 -19 15 -42 0 -41 -27 -42 1 -2 42 25 25 35 43 30 54 -9 24 -33 21 -79 -12z"/>
<path d="M3041 2487 c2 -22 -4 -43 -18 -60 -18 -24 -22 -25 -34 -11 -12 14
-14 14 -25 0 -22 -31 29 -186 61 -186 26 0 28 26 7 95 l-20 65 23 0 c17 0 24
-9 34 -42 20 -67 37 -88 72 -88 41 0 69 17 69 42 0 17 -4 20 -29 15 -34 -7
-45 3 -60 57 -9 35 -8 41 9 53 28 20 25 43 -5 43 -18 0 -28 7 -35 25 -6 16
-17 25 -31 25 -17 0 -20 -5 -18 -33z"/>
<path d="M2831 2433 l-42 -38 25 -81 c27 -84 57 -134 82 -134 16 0 18 22 5 67
-8 27 -6 35 15 54 29 28 33 69 5 69 -10 0 -24 -7 -31 -15 -9 -10 -17 -12 -23
-6 -6 6 1 23 22 48 62 75 17 103 -58 36z"/>
<path d="M3452 2368 c-5 -7 -13 -49 -17 -93 -14 -161 -63 -299 -149 -428 -96
-144 -212 -244 -370 -318 -103 -48 -179 -68 -286 -76 -100 -7 -120 -15 -120
-49 0 -41 33 -49 147 -34 157 19 321 80 442 163 162 111 307 305 371 497 44
128 64 312 38 338 -16 16 -43 15 -56 0z"/>
<path d="M2620 2337 c0 -19 7 -54 15 -78 l15 -44 -21 25 c-61 74 -81 91 -102
88 -29 -4 -34 -56 -13 -139 36 -138 113 -166 82 -29 l-8 35 40 -43 c32 -35 46
-43 69 -40 27 3 28 5 27 53 -1 91 -46 195 -87 203 -13 3 -17 -4 -17 -31z"/>
<path d="M2245 2230 c-4 -6 -5 -24 -3 -40 2 -20 -3 -34 -16 -43 -25 -19 -14
-51 14 -42 14 5 20 2 20 -10 0 -9 10 -39 21 -66 16 -36 29 -51 47 -56 33 -8
77 16 77 42 0 16 -6 19 -32 17 -30 -3 -33 -1 -46 45 -14 45 -13 49 5 70 22 23
16 46 -10 41 -10 -2 -24 8 -34 24 -19 29 -32 35 -43 18z"/>
<path d="M1938 2125 c-20 -13 -39 -33 -43 -44 -8 -25 18 -127 45 -181 17 -33
26 -40 49 -40 32 0 86 40 96 70 6 19 6 19 26 -1 24 -24 50 -24 82 1 17 14 27
16 29 8 7 -20 38 0 38 24 0 30 -43 121 -69 147 -12 12 -32 21 -45 21 -33 0
-76 -37 -76 -66 0 -30 17 -31 47 -3 18 18 25 20 37 10 13 -11 10 -17 -19 -42
-19 -17 -37 -39 -40 -49 -4 -12 -12 -17 -21 -13 -9 3 -28 -4 -44 -16 -16 -11
-32 -21 -35 -21 -14 0 -2 32 20 54 45 45 22 84 -29 51 -24 -16 -26 -16 -26 0
0 9 14 30 30 47 56 56 17 88 -52 43z"/>
</g>
</svg>
